<svg width="62" height="62" viewBox="0 0 62 62" fill="none" xmlns="http://www.w3.org/2000/svg">
<path d="M15.5 0C13.3687 0 11.625 1.74375 11.625 3.875V58.125C11.625 60.2562 13.3687 62 15.5 62H54.25C56.3812 62 58.125 60.2562 58.125 58.125V15.5L42.625 0H15.5Z" fill="#E2E5E7"/>
<path d="M46.5 15.5H58.125L42.625 0V11.625C42.625 13.7563 44.3687 15.5 46.5 15.5Z" fill="#B0B7BD"/>
<path d="M58.125 27.125L46.5 15.5H58.125V27.125Z" fill="#CAD1D8"/>
<path d="M50.5 50.3125C50.5 51.3781 49.6281 52.25 48.5625 52.25H5.9375C4.87187 52.25 4 51.3781 4 50.3125V30.9375C4 29.8719 4.87187 29 5.9375 29H48.5625C49.6281 29 50.5 29.8719 50.5 30.9375V50.3125Z" fill="#227547"/>
<path d="M48.4375 52.3125H11.625V54.25H48.4375C49.5031 54.25 50.375 53.3781 50.375 52.3125V50.375C50.375 51.4406 49.5031 52.3125 48.4375 52.3125Z" fill="#CAD1D8"/>
<path d="M9.864 45V36.564H11.496V45H9.864ZM11.064 45V43.56H15.732V45H11.064ZM11.064 41.388V39.996H15.312V41.388H11.064ZM11.064 38.004V36.564H15.672V38.004H11.064ZM22.5547 45L20.1308 41.244H19.8908L16.6028 36.564H18.5348L20.9468 40.104H21.1868L24.4628 45H22.5547ZM16.4588 45L19.6148 40.488L20.8148 41.292L18.3068 45H16.4588ZM21.2708 40.992L20.0708 40.188L22.4708 36.564H24.3188L21.2708 40.992ZM29.0338 45.12C28.4178 45.12 27.8458 45.012 27.3178 44.796C26.7898 44.572 26.3258 44.264 25.9258 43.872C25.5338 43.472 25.2298 43.008 25.0138 42.48C24.8058 41.952 24.7018 41.384 24.7018 40.776C24.7018 40.168 24.8058 39.6 25.0138 39.072C25.2298 38.544 25.5338 38.084 25.9258 37.692C26.3258 37.3 26.7858 36.992 27.3058 36.768C27.8338 36.544 28.4098 36.432 29.0338 36.432C29.7058 36.432 30.2978 36.544 30.8098 36.768C31.3218 36.984 31.7738 37.284 32.1658 37.668L31.0618 38.772C30.8298 38.516 30.5458 38.316 30.2098 38.172C29.8738 38.028 29.4818 37.956 29.0338 37.956C28.6418 37.956 28.2818 38.024 27.9538 38.16C27.6338 38.288 27.3538 38.48 27.1138 38.736C26.8738 38.984 26.6898 39.284 26.5618 39.636C26.4338 39.98 26.3698 40.36 26.3698 40.776C26.3698 41.2 26.4338 41.584 26.5618 41.928C26.6898 42.272 26.8738 42.572 27.1138 42.828C27.3538 43.076 27.6338 43.268 27.9538 43.404C28.2818 43.54 28.6418 43.608 29.0338 43.608C29.5058 43.608 29.9098 43.536 30.2458 43.392C30.5898 43.248 30.8778 43.044 31.1098 42.78L32.2138 43.884C31.8218 44.276 31.3658 44.58 30.8458 44.796C30.3258 45.012 29.7218 45.12 29.0338 45.12ZM33.3484 45V36.564H34.9804V45H33.3484ZM34.5484 45V43.56H39.2164V45H34.5484ZM34.5484 41.388V39.996H38.7964V41.388H34.5484ZM34.5484 38.004V36.564H39.1564V38.004H34.5484ZM40.5671 45V36.564H42.1991V45H40.5671ZM41.7671 45V43.548H46.0631V45H41.7671Z" fill="white"/>
</svg>
