<svg width="64" height="64" viewBox="0 0 64 64" fill="none" xmlns="http://www.w3.org/2000/svg">
<rect width="64" height="64" rx="12" fill="#FF5B03"/>
<path d="M12.3 40V37.58H15.88C16.7867 37.58 17.58 37.3933 18.26 37.02C18.94 36.6333 19.4667 36.0933 19.84 35.4C20.2267 34.7067 20.42 33.8867 20.42 32.94C20.42 32.02 20.2267 31.22 19.84 30.54C19.4533 29.8467 18.92 29.3133 18.24 28.94C17.56 28.5533 16.7733 28.36 15.88 28.36H12.24V25.94H15.92C16.96 25.94 17.92 26.1133 18.8 26.46C19.6933 26.8067 20.4667 27.3 21.12 27.94C21.7867 28.5667 22.3 29.3067 22.66 30.16C23.0333 31.0133 23.22 31.9467 23.22 32.96C23.22 33.9733 23.0333 34.9133 22.66 35.78C22.3 36.6333 21.7933 37.38 21.14 38.02C20.4867 38.6467 19.7133 39.1333 18.82 39.48C17.94 39.8267 16.9867 40 15.96 40H12.3ZM10.44 40V25.94H13.16V40H10.44ZM25.3814 40V25.94H27.3014L33.0014 35.06H31.9014L37.5814 25.94H39.5014V40H36.8014V30.6L37.3214 30.76L33.3614 37.12H31.5214L27.5614 30.76L28.1014 30.6V40H25.3814ZM48.8936 40.2C47.8669 40.2 46.9136 40.02 46.0336 39.66C45.1536 39.2867 44.3803 38.7733 43.7136 38.12C43.0603 37.4533 42.5536 36.68 42.1936 35.8C41.8469 34.92 41.6736 33.9733 41.6736 32.96C41.6736 31.9467 41.8469 31 42.1936 30.12C42.5536 29.24 43.0603 28.4733 43.7136 27.82C44.3803 27.1667 45.1469 26.6533 46.0136 26.28C46.8936 25.9067 47.8536 25.72 48.8936 25.72C50.0136 25.72 51.0003 25.9067 51.8536 26.28C52.7069 26.64 53.4603 27.14 54.1136 27.78L52.2736 29.62C51.8869 29.1933 51.4136 28.86 50.8536 28.62C50.2936 28.38 49.6403 28.26 48.8936 28.26C48.2403 28.26 47.6403 28.3733 47.0936 28.6C46.5603 28.8133 46.0936 29.1333 45.6936 29.56C45.2936 29.9733 44.9869 30.4733 44.7736 31.06C44.5603 31.6333 44.4536 32.2667 44.4536 32.96C44.4536 33.6667 44.5603 34.3067 44.7736 34.88C44.9869 35.4533 45.2936 35.9533 45.6936 36.38C46.0936 36.7933 46.5603 37.1133 47.0936 37.34C47.6403 37.5667 48.2403 37.68 48.8936 37.68C49.6803 37.68 50.3536 37.56 50.9136 37.32C51.4869 37.08 51.9669 36.74 52.3536 36.3L54.1936 38.14C53.5403 38.7933 52.7803 39.3 51.9136 39.66C51.0469 40.02 50.0403 40.2 48.8936 40.2Z" fill="white"/>
</svg>
