<svg width="64" height="64" viewBox="0 0 64 64" fill="none" xmlns="http://www.w3.org/2000/svg">
<circle cx="32" cy="32" r="32" fill="#FF5B03"/>
<path d="M12.3 39V36.58H15.88C16.7867 36.58 17.58 36.3933 18.26 36.02C18.94 35.6333 19.4667 35.0933 19.84 34.4C20.2267 33.7067 20.42 32.8867 20.42 31.94C20.42 31.02 20.2267 30.22 19.84 29.54C19.4533 28.8467 18.92 28.3133 18.24 27.94C17.56 27.5533 16.7733 27.36 15.88 27.36H12.24V24.94H15.92C16.96 24.94 17.92 25.1133 18.8 25.46C19.6933 25.8067 20.4667 26.3 21.12 26.94C21.7867 27.5667 22.3 28.3067 22.66 29.16C23.0333 30.0133 23.22 30.9467 23.22 31.96C23.22 32.9733 23.0333 33.9133 22.66 34.78C22.3 35.6333 21.7933 36.38 21.14 37.02C20.4867 37.6467 19.7133 38.1333 18.82 38.48C17.94 38.8267 16.9867 39 15.96 39H12.3ZM10.44 39V24.94H13.16V39H10.44ZM25.3814 39V24.94H27.3014L33.0014 34.06H31.9014L37.5814 24.94H39.5014V39H36.8014V29.6L37.3214 29.76L33.3614 36.12H31.5214L27.5614 29.76L28.1014 29.6V39H25.3814ZM48.8936 39.2C47.8669 39.2 46.9136 39.02 46.0336 38.66C45.1536 38.2867 44.3803 37.7733 43.7136 37.12C43.0603 36.4533 42.5536 35.68 42.1936 34.8C41.8469 33.92 41.6736 32.9733 41.6736 31.96C41.6736 30.9467 41.8469 30 42.1936 29.12C42.5536 28.24 43.0603 27.4733 43.7136 26.82C44.3803 26.1667 45.1469 25.6533 46.0136 25.28C46.8936 24.9067 47.8536 24.72 48.8936 24.72C50.0136 24.72 51.0003 24.9067 51.8536 25.28C52.7069 25.64 53.4603 26.14 54.1136 26.78L52.2736 28.62C51.8869 28.1933 51.4136 27.86 50.8536 27.62C50.2936 27.38 49.6403 27.26 48.8936 27.26C48.2403 27.26 47.6403 27.3733 47.0936 27.6C46.5603 27.8133 46.0936 28.1333 45.6936 28.56C45.2936 28.9733 44.9869 29.4733 44.7736 30.06C44.5603 30.6333 44.4536 31.2667 44.4536 31.96C44.4536 32.6667 44.5603 33.3067 44.7736 33.88C44.9869 34.4533 45.2936 34.9533 45.6936 35.38C46.0936 35.7933 46.5603 36.1133 47.0936 36.34C47.6403 36.5667 48.2403 36.68 48.8936 36.68C49.6803 36.68 50.3536 36.56 50.9136 36.32C51.4869 36.08 51.9669 35.74 52.3536 35.3L54.1936 37.14C53.5403 37.7933 52.7803 38.3 51.9136 38.66C51.0469 39.02 50.0403 39.2 48.8936 39.2Z" fill="white"/>
</svg>
